<svg width="121" height="123" viewBox="0 0 121 123" fill="none" xmlns="http://www.w3.org/2000/svg">
<path d="M30.1793 12.8742C28.8885 2.29669 41.8871 -3.75298 49.1487 4.04567L64.3631 20.3853C67.6106 23.873 72.7345 24.8729 77.0549 22.8621L97.2964 13.4416C106.957 8.94538 116.728 19.4384 111.555 28.7545L100.716 48.2734C98.4028 52.4397 99.0352 57.6218 102.283 61.1095L117.497 77.4491C124.759 85.2478 117.798 97.7825 107.34 95.7415L85.4268 91.4652C80.7495 90.5525 76.0165 92.7553 73.703 96.9215L62.8646 116.44C57.6916 125.757 43.6196 123.01 42.3288 112.433L39.6243 90.2711C39.047 85.5407 35.4894 81.72 30.8122 80.8073L8.89927 76.531C-1.55939 74.49 -3.29616 60.2581 6.36474 55.7618L26.6062 46.3413C30.9267 44.3305 33.461 39.7664 32.8837 35.036L30.1793 12.8742Z" fill="url(#paint0_linear_127_354)"/>
<defs>
<linearGradient id="paint0_linear_127_354" x1="-52.986" y1="-0.820716" x2="100.616" y2="139.426" gradientUnits="userSpaceOnUse">
<stop stop-color="#93FFC3"/>
<stop offset="1" stop-color="#A0CEF3"/>
</linearGradient>
</defs>
</svg>
