<svg width="69" height="67" viewBox="0 0 69 67" fill="none" xmlns="http://www.w3.org/2000/svg">
<path d="M11.8694 12.2633C9.65272 3.24047 20.2772 -3.34741 27.3743 2.6493L30.9587 5.67804C34.1326 8.35985 38.6724 8.69304 42.2038 6.50335L46.1917 4.03062C54.0882 -0.865733 63.6372 7.20303 60.1268 15.8056L58.3542 20.1495C56.7843 23.9968 57.8704 28.4173 61.0443 31.0992L64.6283 34.1275C71.7253 40.1242 67.0024 51.6989 57.736 51.0189L53.0556 50.6754C48.9116 50.3713 45.0431 52.77 43.4732 56.6171L41.7002 60.9621C38.1899 69.5646 25.7219 68.6493 23.5052 59.6265L22.3858 55.07C21.3945 51.0348 17.9174 48.0968 13.7733 47.7926L9.09404 47.4492C-0.172516 46.7692 -3.15523 34.6289 4.74129 29.7325L8.72915 27.2598C12.2605 25.0701 13.9803 20.8556 12.989 16.8205L11.8694 12.2633Z" fill="url(#paint0_linear_622_86)"/>
<defs>
<linearGradient id="paint0_linear_622_86" x1="-44.0253" y1="2.32976" x2="75.3263" y2="102.932" gradientUnits="userSpaceOnUse">
<stop offset="0.291406" stop-color="#FFA8D8"/>
<stop offset="1" stop-color="#A0CEF3"/>
</linearGradient>
</defs>
</svg>
