<svg width="24" height="25" viewBox="0 0 24 25" fill="none" xmlns="http://www.w3.org/2000/svg">
<path d="M17.8482 5.72606C18.8126 5.26513 19.8034 6.30756 19.2941 7.24731C17.8279 9.95291 18.2705 13.295 20.3906 15.5255C21.127 16.3003 20.4417 17.5647 19.3906 17.3708C16.3643 16.8123 13.3226 18.2661 11.8564 20.9717C11.3471 21.9114 9.93281 21.6505 9.79246 20.5908C9.38838 17.5401 7.06585 15.0965 4.03957 14.5381C2.98844 14.3442 2.7996 12.9184 3.76399 12.4575C6.54053 11.1305 8.14681 8.16652 7.74273 5.1158L4.76871 5.50971L7.74273 5.11579C7.60238 4.05618 8.89996 3.43601 9.63633 4.21076C11.7564 6.44134 15.0717 7.05309 17.8482 5.72606Z" stroke="white" stroke-width="6"/>
</svg>
