<svg width="30" height="30" viewBox="0 0 30 30" fill="none" xmlns="http://www.w3.org/2000/svg">
<path d="M20.8326 3.3748C24.8189 1.46959 28.9143 5.77843 26.8091 9.66285C25.6613 11.7809 26.0078 14.3972 27.6675 16.1434C30.7113 19.3458 27.8789 24.5723 23.5341 23.7705C21.165 23.3334 18.7838 24.4714 17.636 26.5895C15.5309 30.4739 9.68497 29.3952 9.10483 25.0153C8.7885 22.627 6.97033 20.7141 4.60124 20.2769C0.25642 19.4752 -0.524148 13.5821 3.46213 11.6769C5.63572 10.638 6.89318 8.31772 6.57685 5.92949C5.99671 1.54958 11.3602 -1.01386 14.404 2.18856C16.0637 3.93475 18.659 4.41365 20.8326 3.3748Z" stroke="#FFA8D8"/>
</svg>
